<svg xmlns="http://www.w3.org/2000/svg" xmlns:xlink="http://www.w3.org/1999/xlink" id="Layer_1" viewBox="0 0 1080 378.37"><defs><style>      .st0, .st1 {        fill: #fff;      }      .st1, .st2, .st3 {        fill-rule: evenodd;      }      .st2 {        fill: #df9f20;      }      .st3 {        fill: url(#linear-gradient);      }    </style><linearGradient id="linear-gradient" x1="31.16" y1="260.87" x2="384.64" y2="107.19" gradientUnits="userSpaceOnUse"><stop offset="0" stop-color="#df9f20"></stop><stop offset=".18" stop-color="#ffde55"></stop><stop offset=".32" stop-color="#e9a300"></stop><stop offset=".46" stop-color="#df9f20"></stop><stop offset=".58" stop-color="#e9a300"></stop><stop offset=".71" stop-color="#ffde55"></stop><stop offset=".87" stop-color="#e9a300"></stop><stop offset="1" stop-color="#df9f20"></stop></linearGradient></defs><path class="st3" d="M250.3,156.1c.34-3.13,1-6.2,1.39-8.18,6.45-32.21,13.06-64.58,18.99-96.86-2.42,1.38-23.7,13.04-27.22,15.06-15.12,8.89-13.99,6.3-22.01-9.75-9.6-18.7-18.93-37.82-28.74-56.37-9.81,18.55-19.14,37.67-28.73,56.37-8.02,16.05-6.9,18.64-22.01,9.75-3.52-2.01-24.81-13.68-27.22-15.06,5.94,32.28,12.55,64.65,18.99,96.86.41,2.07,1.1,5.31,1.43,8.57,1.07-.4,2.16-.78,3.29-1.12,9.11-2.8,21.04-3.46,30.1-.19,7.21,2.6,11.58,5.26,17.82,9.91.66.48,1.28,1.11,1.91,1.55,1.58,1.11,4.38,4.7,5.02,5.09.38-.25,1.27-1.38,1.65-1.8,1.61-1.81,3.42-3.41,5.35-4.91,5.34-4.17,11-7.46,17.65-9.82,9.42-3.35,20.97-2.61,30.48.29.62.19,1.24.4,1.86.61M199.36,378.37c-1.14-16.98-2.06-33.87-2.06-51.46.06-7.54,8.63-9.05,18.08-6.97,21.7,3.82,59.72,10.65,82.75,14.43-8.47-17.64-20.25-33.16-1.58-47.69,20.14-16.47,58.31-49.78,88.87-72.55-4.29-2.27-9.28-4.61-13.73-6.58-13.3-6.45-11.57-9.81-7.06-25.2,5-14.99,10.69-31.11,14.76-46.19-7.24,1.51-34.93,7.59-43.33,9.38-19.46,3.12-22.42-1.02-31.34-26.95-4.03,4.3-27.34,33.41-41.34,44.69,1.06.83,1.93,1.65,2.9,2.56,2.95,2.72,5.5,6,7.37,9.44.66,1.21,1.24,2.32,1.84,3.64.31.67.52,1.29.81,1.98.3.72.48,1.33.72,2.07,3.37,10.63,2.63,22.35-1.49,32.3-1.37,3.32-2.99,6.21-4.8,9.21l-4.68,6.48c-.23.29-.41.54-.64.83-1.78,2.28-4.6,5.34-6.79,7.38-.31.29-.36.42-.64.71-1.59,1.67-4.06,3.73-5.86,5.39l-3.09,2.6c-1.47,1.36-3.13,2.48-4.63,3.79l-3.19,2.52c-1.1.78-2.12,1.7-3.22,2.49-3.58,2.56-6.98,5.36-10.54,7.95l-2.41,1.81c-2.93,2.12-6.05,4.8-8.79,6.84-.35.25-.42.3-.76.6-.33.3-.51.35-.84.65l-5.4,4.5c-1.82,1.48-4.1,3.74-5.86,5.39l-2.81,2.86c-.29.35-.45.45-.72.76-1.68,1.92-3.62,3.22-6.67,3.22-3.43,0-5.43-1.89-7.28-4.08-.88-1.04-1.97-1.85-2.82-2.86-1.18-1.42-2.96-2.77-4.35-4.05-1.65-1.52-3.79-3.12-5.34-4.56l-7.04-5.6c-3.02-2.19-5.86-4.58-8.89-6.75-3.54-2.54-6.9-5.26-10.39-7.86l-4.65-3.66c-.33-.28-.5-.34-.84-.65-.33-.3-.42-.33-.76-.59l-5.41-4.5c-.27-.23-.45-.42-.71-.66-1.46-1.34-3.06-2.56-4.38-4.02-.42-.46-.99-.92-1.47-1.37l-4.14-4.25c-1.73-1.98-3.59-3.94-5.14-6.05-.43-.58-.79-1.03-1.21-1.61l-2.28-3.35c-2.63-4.04-4.92-8.49-6.29-13.05-1.58-5.27-2.34-9.82-2.34-15.61,0-3.29.46-6.85,1.1-9.64.86-3.66,1.89-6.93,3.61-10.07.34-.62.63-1.14.94-1.73l2.17-3.34c1.56-2.16,3.23-4.05,5.21-5.87.67-.62,1.37-1.22,2.07-1.79-13.95-10.97-37.78-40.74-41.86-45.1-8.93,25.93-11.89,30.07-31.35,26.95-8.39-1.79-36.08-7.88-43.32-9.38,4.07,15.08,9.76,31.2,14.75,46.19,4.52,15.38,6.25,18.74-7.06,25.2-4.44,1.97-9.44,4.31-13.73,6.58,30.57,22.77,68.73,56.08,88.87,72.55,18.68,14.53,6.89,30.05-1.57,47.69,23.02-3.78,61.05-10.61,82.75-14.43,9.45-2.07,18.02-.56,18.08,6.97,0,16.83-.97,35.32-2.05,51.46h13.28ZM193.21,271.36c-.92-1.23-5.35-5.01-6.91-6.24-1.39-1.09-2.65-2.43-4.12-3.47-.25-.19-.4-.34-.64-.55l-5.49-4.38c-1.51-1.08-2.88-2.37-4.41-3.44-.9-.62-1.61-1.27-2.5-1.9l-22.37-17.36c-1.92-1.73-4.54-3.87-6.26-5.7-.21-.22-.4-.36-.62-.57-1.51-1.33-3-3.07-4.29-4.55-1.39-1.59-2.56-3.17-3.78-4.9-3.91-5.55-6.65-12.27-6.65-19,0-2.79.17-5.72.74-8.29.78-3.49,2.28-6.8,4.52-9.61,5.11-6.45,13.26-10.19,22.12-10.86l3.63-.22c.74,0,.99.1,1.75.12,3.64.09,8.24,1.95,11.2,3.51.42.23.8.4,1.18.62,1.51.9,3.09,1.76,4.52,2.78,1.77,1.26,3.49,2.53,5.08,3.96.64.58,1.4,1.05,1.99,1.68l3.63,3.58c1.45,1.53,2.64,3.41,4.9,4.12,3.12,1,6.03.46,8.36-1.61.76-.68,1.85-1.97,2.55-2.76.34-.38.61-.59.93-.96l7.72-6.74c4.8-3.63,11.28-7.3,17.6-8.08,2.34-.29,4.7-.2,7.1.01,1.04.09,2.27.29,3.35.47,1.9.34,4.24.98,5.84,1.6,12.34,4.78,17.59,14.06,17.59,26.11,0,6.3-1.89,11.66-4.74,16.56-1.02,1.75-2.24,3.55-3.51,5.14-.66.84-1.26,1.67-1.98,2.48-.71.79-1.33,1.52-2.06,2.3-.7.74-1.44,1.48-2.16,2.21-1.23,1.43-5.57,5.22-6.9,6.36l-1.25,1c-2.47,2.22-6.45,5.15-9.25,7.38l-3.12,2.36c-.44.33-.84.68-1.27.99-.9.66-1.67,1.28-2.59,1.93-.28.19-.34.29-.59.47l-2.5,1.91c-.29.22-.39.26-.68.51l-8.82,6.77c-.44.38-.76.57-1.19.95l-2.43,1.96c-1.52,1.38-3.33,2.64-4.88,4.03l-1.25,1c-1.63,1.28-5.85,5.55-7.09,6.3"></path><path class="st2" d="M657.63,123.22v40.07c0,9.55-3.07,16.93-9.22,22.16s-13.84,7.83-23.08,7.83-16.94-2.6-23.09-7.83c-6.14-5.23-9.22-12.61-9.22-22.16v-40.07c0-9.54,3.08-16.92,9.22-22.15,6.15-5.23,13.84-7.84,23.09-7.84s16.93,2.62,23.08,7.84c6.15,5.22,9.22,12.61,9.22,22.15M610.81,123.22v40.07c0,5.36,1.28,9.43,3.83,12.2,2.56,2.77,6.13,4.16,10.69,4.16s8.13-1.4,10.68-4.16c2.56-2.77,3.84-6.84,3.84-12.2v-40.07c0-5.37-1.28-9.43-3.84-12.19-2.55-2.78-6.12-4.16-10.68-4.16s-8.13,1.38-10.69,4.16c-2.55,2.77-3.83,6.83-3.83,12.19ZM524.03,94.18h17.61v75.51c0,6.63,3.21,9.95,9.63,9.95s9.3-3.32,9.3-9.95v-75.51h17.77v75.65c0,7.62-2.39,13.45-7.17,17.44-4.79,4-10.76,6-17.95,6-9.24,0-16.05-2.95-20.39-8.86-4.35,5.91-11.14,8.86-20.39,8.86-7.18,0-13.16-1.99-17.94-6-4.79-3.99-7.19-9.81-7.19-17.44v-75.65h17.79v75.51c0,6.63,3.1,9.95,9.3,9.95s9.63-3.32,9.63-9.95v-75.51ZM475.89,94.18v13.63h-21.2v84.51h-17.78v-84.51h-21.21v-13.63h60.2Z"></path><path class="st1" d="M1053.89,157.22l-5.57-25.18-5.71,25.18M1080,190.49h-20c-.09-1.15-.32-2.61-.68-4.39l-2.52-12.71h-16.98l-2.65,12.71c-.36,1.79-.59,3.24-.67,4.39h-20.01l22.54-95.71h18.43l22.54,95.71ZM990.09,144.75c0-11.13-.59-18.41-1.74-21.85-2.29-7.08-7.62-10.8-16.05-11.15v62.57c7.79-.53,12.89-3.85,15.26-9.93,1.69-3.81,2.53-10.37,2.53-19.64ZM1010.78,142.65c0,31.89-12.79,47.84-38.34,47.84h-19.36c.17-1.25.27-2.49.27-3.71v-88.02c0-1.15-.09-2.38-.27-3.71h19.62c25.38,0,38.08,15.86,38.08,47.6ZM918.07,157.22l-5.57-25.18-5.7,25.18h11.27ZM944.2,190.49h-20.01c-.09-1.15-.32-2.61-.68-4.39l-2.52-12.71h-16.98l-2.64,12.71c-.37,1.79-.59,3.24-.68,4.39h-20.01l22.54-95.71h18.43l22.55,95.71ZM872.05,95.32c-.18,1.31-.27,2.64-.27,3.98v91.46h-16.85l-19.48-48.79v45.07c0,1.34.04,2.57.12,3.73h-18.16c.17-1.23.24-2.48.24-3.73v-91.71h17.8l18.56,48.77v-45.07c0-1.15-.09-2.4-.27-3.7h18.3ZM782.26,157.22l-5.57-25.18-5.7,25.18h11.27ZM808.38,190.49h-20.01c-.09-1.15-.32-2.61-.68-4.39l-2.52-12.71h-16.98l-2.64,12.71c-.37,1.79-.59,3.24-.68,4.39h-20.01l22.55-95.71h18.42l22.55,95.71ZM735.83,160.4c-.43,21.92-9.55,32.87-27.32,32.87-12.11,0-20.23-5.27-24.39-15.77-2.75-6.8-4.12-18.3-4.12-34.47,0-15.02,1.65-26.43,4.9-34.2,4.6-11.05,12.57-16.57,23.89-16.57,8.85,0,15.59,2.92,20.28,8.75,4.17,5.11,6.39,12.33,6.63,21.61h-19.9v-3.32c0-2.56-.43-4.82-1.31-6.77-1.25-2.55-3.01-3.82-5.32-3.82-5.48,0-8.21,11.51-8.21,34.59,0,13.25.17,21.24.54,23.98.8,5.83,3.27,8.75,7.43,8.75,2.29,0,4.19-1.86,5.7-5.57,1.13-3.01,1.72-5.84,1.72-8.48v-1.59h19.49Z"></path><g><path class="st0" d="M473.86,278.79c0,10.14,11.61,18.15,31.06,18.15,41.85,0,76.19-38.09,78.96-38.09.82,0,1.31.82,1.31,1.47,0,1.64-.98,2.78-4.25,6.21-11.28,11.93-44.96,35.64-80.27,35.64-21.74,0-34.33-9.97-34.33-22.07,0-13.24,15.21-28.94,50.03-36.46-18.97-2.45-24.36-7.85-24.36-13.24,0-18.8,58.86-45.94,104.63-45.94,20.43,0,25.99,5.72,25.99,10.46,0,14.55-52.15,26.32-68.5,26.32-4.91,0-6.38-1.14-6.38-3.6,0-1.63.65-2.29,2.61-2.29.82,0,1.8.16,2.62.82,24.03,0,63.43-14.55,63.43-20.76,0-2.62-5.56-5.23-20.76-5.23-51.33,0-98.26,29.75-98.26,39.56,0,5.88,16.51,9.65,31.55,10.14,3.27-.65,13.9-2.45,21.42-2.45,5.89,0,8.01.98,8.01,3.6,0,2.94-2.78,3.43-15.53,3.43-7.36,0-11.28-.16-12.43-.16-39.89,7.36-56.57,22.23-56.57,34.5Z"></path><path class="st0" d="M579.96,280.09c-4.91,4.58-9.48,9.32-13.41,14.06-.65,1.47-.98,1.8-1.8,1.8-.98,0-2.12-.98-2.12-2.13,0-.82.65-1.63,1.96-3.11,5.72-6.54,11.12-11.77,16.35-16.51.82-3.6,1.8-7.19,3.11-10.63-1.14-1.14-1.63-2.62-1.63-3.76,0-2.94,5.23-7.85,8.17-7.85,1.47,0,2.12,1.47,2.12,2.29,0,1.47-1.8,3.92-3.92,10.63-.49,1.31-.98,2.45-1.31,3.6,8.01-6.54,16.02-12.26,25.01-18.96,1.96-1.47,4.9-3.6,6.38-3.6.82,0,1.63,1.96,1.63,3.11,0,1.8-3.6,2.62-5.23,3.76-8.17,5.56-19.13,13.41-29.59,22.4-.82,2.94-1.14,5.56-1.14,7.85,0,3.27,1.47,4.58,3.76,4.58,13.73,0,35.31-28.61,37.77-28.61.82,0,1.8.49,1.8,1.63,0,.49-.82,2.29-4.41,5.89-17.33,17-25.83,25.5-35.31,25.5-4.58,0-8.17-3.11-8.17-9.32v-2.62Z"></path><path class="st0" d="M626.72,264.56c11.28-10.46,17-12.75,21.09-12.75s6.87,3.43,6.87,6.21c0,8.5-19.29,34.01-29.1,34.01-4.74,0-9.65-3.6-10.95-10.14-13.24,19.46-29.59,44.31-40.38,63.92,0,2.78-.16,3.6-1.47,3.6-1.47,0-3.11-2.13-3.11-3.92,0-1.31.16-3.11,2.94-7.52,25.18-40.71,48.56-74.88,64.58-94.99,0-2.62,0-3.43.98-3.43,1.14,0,2.94.98,2.94,2.78,0,2.45-.98,3.92-5.89,10.46l-8.5,11.77ZM624.26,287.61c6.38,0,25.34-23.38,25.34-30.08,0-1.63-.33-1.8-1.63-1.8-3.11,0-13.08,4.41-29.76,21.91,0,6.05,3.6,9.97,6.05,9.97Z"></path><path class="st0" d="M661.37,281.89c0,3.92,1.47,5.72,5.72,5.72,10.46,0,17.82-4.25,36.95-24.2,3.11-3.27,4.25-4.41,4.9-4.41.82,0,1.8.65,1.8,1.63,0,1.31-2.78,4.09-4.41,5.89-15.2,16.02-25.99,25.5-39.73,25.5-6.7,0-10.3-3.27-10.3-9.81,0-14.55,22.89-37.77,33.35-37.77,3.76,0,5.72,2.62,5.72,5.89,0,4.9-5.89,14.39-34.01,29.92v1.63ZM690.96,250.83c0-1.31-.65-1.8-1.96-1.8-4.91,0-21.42,14.39-26.32,26.65,19.29-12.1,28.28-20.6,28.28-24.85Z"></path><path class="st0" d="M710.58,262.93c-3.92,0-4.74-1.8-4.74-3.92,0-4.58,5.4-11.44,8.83-11.44,1.14,0,2.29,1.14,2.29,2.45,0,1.63-1.8,3.43-3.92,7.03,2.45,0,6.05-.65,7.52-.65,2.78,0,4.91.82,4.91,4.74,0,3.27-16.68,17.17-16.68,24.2,0,1.47.65,2.45,2.45,2.45,7.36,0,23.71-16.19,31.23-24.36,2.45-2.62,4.25-4.41,4.91-4.41s1.8.49,1.8,1.63c0,.98-1.14,2.29-4.42,5.89-9.32,9.81-24.69,25.5-32.53,25.5-4.74,0-8.5-2.45-8.5-7.36,0-5.72,6.87-14.55,14.39-22.4-2.45,0-4.9.65-7.52.65Z"></path><path class="st0" d="M741.31,292.03c-6.05,0-7.85-4.09-7.85-7.85,0-10.14,15.37-30.25,18.31-30.25,1.8,0,3.27,1.31,3.27,2.94,0,1.14-.65,2.13-4.91,7.03-4.58,5.23-12.1,16.02-12.1,20.76,0,2.45,1.96,3.27,3.43,3.27,10.95,0,25.99-11.93,27.14-11.93.82,0,.98.65.98,1.31,0,5.23-19.95,14.71-28.28,14.71ZM776.3,228.92c-3.43,0-4.41-2.12-4.41-4.25,0-2.62,1.63-5.23,5.07-5.23s5.07,2.29,5.07,4.58c0,2.45-1.8,4.9-5.72,4.9Z"></path><path class="st0" d="M769.1,281.89c0,3.92,1.47,5.72,5.72,5.72,10.46,0,17.82-4.25,36.95-24.2,3.11-3.27,4.25-4.41,4.9-4.41.82,0,1.8.65,1.8,1.63,0,1.31-2.78,4.09-4.41,5.89-15.2,16.02-25.99,25.5-39.73,25.5-6.7,0-10.3-3.27-10.3-9.81,0-14.55,22.89-37.77,33.35-37.77,3.76,0,5.72,2.62,5.72,5.89,0,4.9-5.89,14.39-34.01,29.92v1.63ZM798.69,250.83c0-1.31-.65-1.8-1.96-1.8-4.91,0-21.42,14.39-26.32,26.65,19.29-12.1,28.28-20.6,28.28-24.85Z"></path><path class="st0" d="M817.82,292.36c-.65.82-2.62,3.6-3.92,3.6-1.47,0-2.94-1.8-2.94-3.27,0-1.31.82-3.11,3.43-7.03,11.12-16.35,17.82-23.38,17.82-27.79,0-1.64-.65-2.94-2.45-2.94-7.19,0-15.53,12.75-17.33,12.75-.82,0-1.63-.98-1.63-1.96,0-1.96,11.77-14.55,18.8-14.55,3.43,0,6.54,2.94,6.54,6.54,0,7.19-9.48,17.49-16.35,26.98,2.45-2.78,32.37-30.25,36.78-30.25,1.14,0,4.25,1.14,4.25,2.94,0,1.47-2.29,2.13-6.38,6.87-4.74,5.56-12.1,15.37-12.1,20.6,0,1.47.49,2.78,2.29,2.78,6.38,0,21.09-14.22,30.57-24.2,2.78-2.94,4.25-4.41,4.91-4.41s1.8.49,1.8,1.63c0,.98-.98,2.13-4.42,5.89-10.63,11.28-25.5,25.5-31.88,25.5-4.25,0-7.68-3.43-7.68-8.34,0-5.4,4.42-12.59,9.16-17.17-5.23,3.11-17.49,13.08-29.27,25.83Z"></path><path class="st0" d="M877.32,292.03c-6.7,0-11.12-3.27-11.12-10.63,0-12.75,22.07-34.66,32.7-34.66,6.87,0,8.17,4.09,8.17,6.54,0,5.56-5.4,12.1-8.01,12.1-1.14,0-2.12-.65-2.12-1.63,0-1.8,5.07-5.89,5.07-10.46,0-2.13-.98-2.62-2.29-2.62-7.19,0-28.77,19.78-28.77,31.72,0,3.92,1.47,5.72,6.21,5.72,14.22,0,28.12-12.1,29.59-12.1.65,0,.98.49.98,1.31,0,4.74-18.15,14.71-30.41,14.71Z"></path><path class="st0" d="M906.75,281.56c0,3.92,2.29,6.38,7.36,6.38,13.24,0,27.3-11.93,28.61-11.93.65,0,.98.49.98,1.31,0,4.58-17.66,14.71-30.9,14.71-7.52,0-10.63-5.23-10.63-10.14,0-14.55,20.76-38.09,29.92-38.09,3.76,0,6.05,2.62,6.05,5.89,0,4.9-5.56,17.17-31.39,30.9v.98ZM933.72,250.01c0-1.31-.65-1.8-1.96-1.8-4.09,0-20.11,15.53-24.2,28.12,20.93-12.92,26.16-22.07,26.16-26.32Z"></path></g></svg>